# xmcd
# 
# Track frame offsets:
#     150
#     11775
#     27000
#     42000
#     52203
#     65328
#     77253
#     92630
#     102155
#     116480
#     130583
#     142058
# 
# Disc length: 2060
# 
# Revision: 5
# Processed by: cddbd v1.5.2PL0 Copyright (c) Steve Scherf et al.
# Submitted via: fre:ac v1.0.31
# 
DISCID=94080a0c
DTITLE=Lucero - ¡Cariño De Mis Cariños!
DYEAR=1994
DGENRE=Ranchero
TTITLE0=Cariño
TTITLE1=Que Te Ganaste
TTITLE2=Y Volveré
TTITLE3=Me Piden
TTITLE4=Corazon De Roca
TTITLE5=Olvidarte... Nunca
TTITLE6=Cariño De Mis Cariños
TTITLE7=Me Estas Quemando
TTITLE8=Te Acordarás De Mi
TTITLE9=Ya Quedamos
TTITLE10=Tu Nuevo Amor
TTITLE11=Que Ironía
EXTD=
EXTT0=Juan Escamilla
EXTT1=Enrique Negrete Rinc n
EXTT2=Alain Barriere
EXTT3=Gregorio Cortez
EXTT4=Gabriel Luna de la Fuente
EXTT5=R. C rdoba
EXTT6=Alberto Cervantes/Rub n Fuentes
EXTT7=Rafael Buend a
EXTT8=Victor Daviel
EXTT9=Irma Cue/Isabel Leonor Cova
EXTT10=Enrique Coki Navarro
EXTT11=Braulio Ben tez
PLAYORDER=
